<?xml version="1.0" encoding="utf-8"?>
<!-- Generator: Adobe Illustrator 24.3.0, SVG Export Plug-In . SVG Version: 6.00 Build 0)  -->
<svg version="1.1" xmlns="http://www.w3.org/2000/svg" xmlns:xlink="http://www.w3.org/1999/xlink" x="0px" y="0px"
	 viewBox="0 0 200 100" style="enable-background:new 0 0 200 100;" xml:space="preserve">
<style type="text/css">
	.st0{fill:#2280BF;}
	.st1{fill:#E5DA0A;}
	.st2{fill:#FFFF03;}
	.st3{fill:#CCC205;}
	.st4{fill:#969913;}
	.st5{fill:#8E8E0E;}
	.st6{fill:#8E8E0C;}
	.st7{fill:#1870A0;}
</style>
<g id="Text">
	<g>
		<path class="st0" d="M34.52,40.59c0,0.09-0.03,0.13-0.1,0.13h-8.05c-0.1,0-0.16-0.02-0.18-0.05c-0.02-0.03-0.03-0.07-0.03-0.12
			v-0.51c0-0.1,0.02-0.16,0.05-0.17s0.07-0.02,0.12-0.02h2.26c0.15,0,0.23-0.16,0.23-0.48L28.77,22.2c0-2.09-0.19-3.14-0.58-3.14
			h-2.11c-0.16,0-0.23-0.06-0.23-0.17v-0.58c0-0.09,0.06-0.13,0.17-0.13h8.05c0.1,0,0.15,0.04,0.15,0.13v0.61
			c0,0.09-0.06,0.13-0.18,0.13h-2.34c-0.2,0-0.3,0.12-0.3,0.35c-0.02,10.05-0.03,15.24-0.03,15.57c0,1.64,0.01,2.57,0.02,2.81
			c0.08,1.37,0.3,2.06,0.66,2.06h2.34c0.09,0,0.13,0.04,0.13,0.13V40.59z"/>
		<path class="st0" d="M53.52,40.53c0,0.13-0.04,0.2-0.13,0.2h-7.01c-0.11,0-0.17-0.04-0.17-0.13v-0.58c0-0.11,0.06-0.17,0.17-0.17
			h1.78c0.14,0,0.24-0.09,0.3-0.28c0.15-1.16,0.23-3.74,0.23-7.72c0-1.86-0.29-3.06-0.85-3.6c-0.57-0.54-1.44-0.81-2.61-0.81
			c-1.48,0-2.71,0.33-3.67,1c-0.16,0.1-0.23,0.24-0.23,0.43c-0.07,0.48-0.1,2.98-0.1,7.52c0,2.31,0.17,3.47,0.51,3.47h2.27
			c0.11,0,0.17,0.06,0.17,0.17v0.58c0,0.09-0.06,0.13-0.17,0.13h-7.45c-0.06,0-0.1-0.01-0.12-0.03c-0.03-0.02-0.04-0.08-0.04-0.17
			v-0.55c0-0.09,0.06-0.13,0.17-0.13h2.11c0.17,0,0.25-0.1,0.25-0.32c0-0.07,0.02-1.83,0.05-5.3s0.05-5.29,0.05-5.47
			c0-1.65-0.17-2.47-0.51-2.47h-2.01c-0.13,0-0.2-0.07-0.2-0.22v-0.5c0-0.1,0.04-0.15,0.13-0.15h2.14c0.12,0,0.41-0.01,0.87-0.03
			c0.46-0.02,0.7-0.03,0.72-0.03c0.11-0.01,0.28-0.04,0.51-0.09s0.39-0.07,0.48-0.07c0.15,0,0.23,0.13,0.23,0.38
			c0,0.06-0.01,0.34-0.03,0.86c-0.02,0.52-0.03,0.82-0.03,0.9c0,0.34,0.07,0.45,0.2,0.32c0.95-0.77,1.87-1.36,2.76-1.74
			c0.84-0.37,1.65-0.55,2.42-0.55c1.18,0,2.17,0.39,2.96,1.16c0.84,0.82,1.26,2.35,1.26,4.58c0,0.74-0.04,2-0.11,3.76
			c-0.07,1.77-0.11,2.63-0.11,2.6c0,1.62,0.12,2.42,0.35,2.42h2.27c0.13,0,0.2,0.03,0.2,0.1V40.53z"/>
		<path class="st0" d="M69.61,43.7c0,1.24-0.63,2.43-1.89,3.59c-1.55,1.41-3.93,2.11-7.14,2.11c-2.19,0-3.85-0.45-4.96-1.36
			c-0.93-0.75-1.39-1.62-1.39-2.61c0-1.08,0.46-2.12,1.39-3.1c0.3-0.33,1.09-0.75,2.37-1.26c0.31-0.19,0.3-0.3-0.03-0.35
			c-0.72-0.19-1.18-0.34-1.39-0.45c-0.54-0.3-0.81-0.75-0.81-1.36c0-0.62,0.25-1.14,0.75-1.56c0.5-0.35,1-0.71,1.49-1.06
			c0.14-0.12,0.08-0.26-0.2-0.42c-0.44-0.23-0.93-0.6-1.46-1.11c-0.86-0.83-1.29-2.05-1.29-3.65c0-1.64,0.52-3.01,1.57-4.12
			c1.05-1.11,2.53-1.66,4.44-1.66c1.13,0,2.13,0.08,2.99,0.25c0.63,0.11,1.61,0.17,2.94,0.17c0.82,0,1.41-0.08,1.76-0.25
			c0.09-0.02,0.2-0.07,0.34-0.15c0.14-0.08,0.22-0.12,0.24-0.12c0.11,0,0.17,0.13,0.17,0.38c0,0.51-0.19,1.01-0.58,1.49
			c-0.13,0.13-0.42,0.2-0.85,0.2c-0.44,0-1.09-0.06-1.94-0.17c-0.38-0.06-0.56-0.02-0.56,0.1c0,0.08,0.04,0.17,0.13,0.27
			c0.81,0.96,1.21,2.05,1.21,3.27c0,1.56-0.58,2.91-1.74,4.06s-2.63,1.72-4.4,1.72c-0.59,0-1.11-0.07-1.56-0.2
			c-0.13-0.04-0.26-0.02-0.38,0.07c-0.28,0.16-0.55,0.3-0.81,0.45c-0.34,0.23-0.51,0.5-0.51,0.8c0,0.4,0.13,0.66,0.38,0.8
			c0.14,0.09,0.47,0.16,0.98,0.22c0.76,0.09,1.48,0.13,2.14,0.13c3.62,0,6.06,0.58,7.34,1.74C69.18,41.33,69.61,42.38,69.61,43.7z
			 M67.75,44.61c0-0.38-0.13-0.77-0.4-1.2c-0.34-0.55-0.82-0.96-1.44-1.21c-1.45-0.59-3.13-0.88-5.03-0.88
			c-1.73,0-2.98,0.39-3.77,1.16c-0.84,0.82-1.26,1.77-1.26,2.84c0,0.91,0.43,1.64,1.29,2.19c1.04,0.69,2.48,1.03,4.32,1.03
			c2.01,0,3.55-0.42,4.62-1.26c0.64-0.5,1.07-0.9,1.28-1.21C67.62,45.68,67.75,45.2,67.75,44.61z M64.48,31.68
			c0-1.7-0.4-2.97-1.2-3.8c-0.92-0.97-1.97-1.46-3.15-1.46c-1.12,0-1.87,0.28-2.24,0.85c-0.48,0.72-0.71,1.64-0.71,2.76
			c0,1.42,0.24,2.57,0.71,3.47c0.77,1.45,1.92,2.17,3.44,2.17c1.04,0,1.81-0.32,2.31-0.95C64.2,33.98,64.48,32.96,64.48,31.68z"/>
		<path class="st0" d="M83.97,38.49c0,0.02-0.01,0.06-0.03,0.1c-0.34,0.34-0.63,0.6-0.86,0.76c-0.41,0.29-0.96,0.59-1.66,0.9
			c-1.12,0.5-2.33,0.75-3.64,0.75c-1.95,0-3.5-0.58-4.65-1.73c-1.41-1.41-2.11-3.12-2.11-5.13c0-1.44,0.08-2.5,0.23-3.17
			c0.39-1.65,1.07-2.95,2.04-3.9c1.13-1.12,2.52-1.68,4.18-1.68c0.8,0,1.45,0.13,1.96,0.38c0.4,0.19,1.03,0.6,1.91,1.23
			c1.04,0.74,1.74,1.51,2.11,2.31c0.09,0.2,0.13,0.37,0.13,0.51c0,0.12-0.1,0.22-0.3,0.3c-0.42,0.17-1.65,0.44-3.7,0.81
			c-2.34,0.43-3.89,0.65-4.67,0.65c-0.07,0-0.33,0.01-0.79,0.02c-0.46,0.01-0.73,0.02-0.81,0.02c-0.13,0-0.2,0.26-0.2,0.78
			c0,2.29,0.84,4.16,2.51,5.61c0.9,0.77,2.37,1.16,4.42,1.16c1.05,0,1.91-0.12,2.59-0.35c0.48-0.15,0.8-0.32,0.98-0.5
			c0.03-0.02,0.08-0.05,0.15-0.08c0.06,0,0.1,0.04,0.13,0.12C83.93,38.39,83.95,38.43,83.97,38.49z M80.87,29.6
			c0-0.09-0.06-0.23-0.17-0.43c-0.48-0.84-1.07-1.54-1.79-2.09c-0.72-0.55-1.55-0.83-2.49-0.83c-0.7,0-1.37,0.43-2.01,1.28
			c-0.23,0.32-0.48,0.81-0.75,1.48c-0.29,0.72-0.43,1.27-0.43,1.66c0,0.18,0.07,0.27,0.2,0.27c-0.11,0,0.84-0.08,2.86-0.23
			c1.91-0.15,3.35-0.42,4.32-0.78C80.78,29.84,80.87,29.74,80.87,29.6z"/>
		<path class="st0" d="M96.56,27.03c-0.12,0.72-0.29,1.41-0.51,2.08c-0.06,0.18-0.13,0.27-0.23,0.27c-0.12,0-0.22-0.06-0.3-0.17
			c-0.29-0.41-0.54-0.69-0.76-0.85c-0.43-0.34-0.99-0.51-1.66-0.51c-1.25,0-2.19,0.27-2.82,0.81c-0.11,0.1-0.17,0.25-0.17,0.45
			c0,0.07-0.01,1.34-0.02,3.83c-0.01,2.49-0.02,3.81-0.02,3.95c0,1.97,0.18,2.96,0.55,2.96h3.25c0.14,0,0.22,0.08,0.22,0.23v0.48
			c0,0.11-0.05,0.17-0.15,0.17h-8.5c-0.16,0-0.23-0.06-0.23-0.17v-0.48c0-0.15,0.07-0.23,0.2-0.23h2.01c0.21,0,0.32-0.1,0.32-0.32
			V28.62c0-1.52-0.18-2.27-0.55-2.27h-2.04c-0.11,0-0.17-0.06-0.17-0.18v-0.53c0-0.12,0.06-0.18,0.17-0.18h2.27
			c0.8,0,1.31-0.03,1.53-0.1c0.61-0.18,0.94-0.27,1-0.27c0.15,0,0.23,0.15,0.23,0.45c0,0.08-0.01,0.41-0.03,0.99
			c-0.02,0.58-0.03,0.9-0.03,0.97c0,0.32,0.07,0.42,0.2,0.28c0.51-0.44,1.09-0.93,1.74-1.46c0.81-0.6,1.6-0.9,2.37-0.9
			c0.9,0,1.59,0.38,2.08,1.13C96.59,26.7,96.61,26.86,96.56,27.03z"/>
		<path class="st0" d="M109.12,36.44c0,1.21-0.34,2.21-1.01,3.02c-0.84,1-2.25,1.49-4.22,1.49c-2.1,0-3.89-0.58-5.35-1.73
			c-0.16-0.12-0.23-0.36-0.23-0.71c-0.04-0.45-0.07-1.43-0.07-2.92c0-0.21,0.09-0.32,0.27-0.32c0.19,0,0.3,0.08,0.35,0.25
			c0,0.04,0.04,0.2,0.13,0.46c0.09,0.31,0.14,0.53,0.17,0.65c0.28,0.96,0.8,1.92,1.56,2.86c0.21,0.24,0.39,0.38,0.55,0.42
			c0.53,0.09,1.39,0.13,2.59,0.13c1.18,0,2.13-0.3,2.82-0.91c0.54-0.48,0.81-1.13,0.81-1.98c0-0.5-0.21-0.93-0.61-1.29
			c-0.56-0.5-1.3-0.85-2.21-1.05c-0.1-0.03-0.42-0.15-0.96-0.34c-0.54-0.19-0.87-0.31-0.98-0.34c-1.28-0.56-2.21-1.12-2.77-1.68
			c-0.8-0.77-1.2-1.77-1.2-2.99c0-0.98,0.35-1.85,1.05-2.59c0.89-0.93,2.17-1.39,3.85-1.39c2.06,0,3.59,0.5,4.58,1.51
			c0.09,0.09,0.13,0.22,0.13,0.4v2.39c0,0.24-0.06,0.37-0.17,0.37c-0.13,0-0.23-0.07-0.3-0.2c-0.42-0.92-0.89-1.91-1.39-2.99
			c-0.1-0.19-0.23-0.29-0.38-0.32c-0.49-0.13-1.25-0.2-2.27-0.2c-0.97,0-1.77,0.18-2.37,0.55c-0.71,0.41-1.06,1.02-1.06,1.83
			c0,1.31,0.91,2.22,2.72,2.76c0.55,0.17,1.37,0.43,2.44,0.78c1.02,0.34,1.83,0.79,2.42,1.33
			C108.75,34.37,109.12,35.29,109.12,36.44z"/>
		<path class="st0" d="M125.92,33.04c0,1.44-0.24,2.72-0.71,3.85c-0.55,1.31-1.56,2.37-3.02,3.19c-1.01,0.56-2.17,0.85-3.5,0.85
			c-1.5,0-2.57-0.13-3.2-0.4c-1.35-0.6-2.37-1.59-3.05-2.96c-0.68-1.38-1.02-2.84-1.02-4.39c0-1.7,0.37-3.21,1.11-4.52
			c0.67-1.17,1.63-2.07,2.86-2.69c0.95-0.48,2.3-0.71,4.05-0.71c1.42,0,2.54,0.26,3.37,0.78c1.08,0.69,1.89,1.66,2.41,2.92
			C125.69,30.12,125.92,31.48,125.92,33.04z M123.58,33.85c0-2.3-0.55-4.1-1.64-5.4c-1.12-1.34-2.58-2.01-4.38-2.01
			c-0.94,0-1.58,0.08-1.93,0.23c-0.23,0.1-0.5,0.36-0.8,0.78c-0.65,0.95-0.98,2.37-0.98,4.25c0,1.96,0.35,3.75,1.05,5.38
			c0.49,1.12,1.13,1.92,1.94,2.41c0.71,0.43,1.49,0.65,2.36,0.65c1,0,1.77-0.15,2.31-0.46c0.65-0.39,1.18-1.13,1.59-2.22
			C123.42,36.63,123.58,35.43,123.58,33.85z"/>
		<path class="st0" d="M135.9,40.59c0,0.09-0.06,0.13-0.18,0.13h-8.25c-0.14,0-0.22-0.06-0.22-0.17v-0.58c0-0.13,0.06-0.2,0.18-0.2
			h2.71c0.23,0,0.35-0.13,0.35-0.38V20.97c0-2.46-0.22-3.69-0.65-3.69h-2.04c-0.13,0-0.2-0.07-0.2-0.2v-0.55
			c0-0.15,0.04-0.23,0.13-0.23h1.29c0.77,0,1.59-0.11,2.45-0.34c0.86-0.23,1.23-0.34,1.12-0.34c0.2,0,0.3,0.16,0.3,0.48
			c0,0.03-0.03,3.31-0.1,9.84c-0.07,6.53-0.1,9.91-0.1,10.14c0,2.46,0.21,3.69,0.61,3.69h2.41c0.12,0,0.18,0.06,0.18,0.17V40.59z"/>
		<path class="st0" d="M145.05,40.59c0,0.09-0.06,0.13-0.18,0.13h-8.25c-0.14,0-0.22-0.06-0.22-0.17v-0.58c0-0.13,0.06-0.2,0.18-0.2
			h2.71c0.23,0,0.35-0.13,0.35-0.38V20.97c0-2.46-0.22-3.69-0.65-3.69h-2.04c-0.13,0-0.2-0.07-0.2-0.2v-0.55
			c0-0.15,0.04-0.23,0.13-0.23h1.29c0.77,0,1.59-0.11,2.45-0.34c0.86-0.23,1.23-0.34,1.12-0.34c0.2,0,0.3,0.16,0.3,0.48
			c0,0.03-0.03,3.31-0.1,9.84c-0.07,6.53-0.1,9.91-0.1,10.14c0,2.46,0.21,3.69,0.61,3.69h2.41c0.12,0,0.18,0.06,0.18,0.17V40.59z"/>
		<path class="st0" d="M44.82,52.29c-0.1,0.7-0.27,1.5-0.51,2.42c-0.04,0.16-0.11,0.23-0.2,0.23c-0.11,0-0.22-0.09-0.32-0.27
			c-0.25-0.5-0.7-0.82-1.33-0.96c-1.1-0.24-3.07-0.37-5.91-0.37c-0.18,0-0.27,0.07-0.28,0.22c-0.01,0.14-0.04,2.72-0.1,7.74
			c-0.07,4.81-0.1,7.39-0.1,7.72c0,3.15,0.27,4.73,0.81,4.73h2.86c0.08,0,0.12,0.04,0.12,0.13v0.58c0,0.11-0.04,0.17-0.12,0.17
			h-9.13c-0.12,0-0.18-0.06-0.18-0.17v-0.55c0-0.11,0.06-0.17,0.18-0.17h2.67c0.21,0,0.32-0.14,0.32-0.43
			c-0.04-2.32-0.07-3.6-0.07-3.82c0-0.19,0.03-2.06,0.08-5.6c0.06-3.55,0.08-5.4,0.08-5.55c0-3.33-0.19-5-0.58-5
			c-2.86,0-4.87,0.16-6.04,0.48c-0.85,0.22-1.4,0.53-1.64,0.91c-0.12,0.2-0.23,0.3-0.33,0.3c-0.14,0-0.22-0.04-0.22-0.13
			c0-0.12,0.04-0.27,0.12-0.43c0.31-1.12,0.56-1.95,0.75-2.49c0.04-0.14,0.17-0.2,0.37-0.17c0.23,0.03,1.37,0.1,3.42,0.2
			c2.39,0.11,4.32,0.17,5.79,0.17c4.74,0,7.43-0.01,8.07-0.03c0.3-0.01,0.58-0.04,0.84-0.08c0.26-0.04,0.38-0.06,0.37-0.06
			C44.75,52.02,44.82,52.11,44.82,52.29z"/>
		<path class="st0" d="M60.96,66.95c0,1.44-0.24,2.72-0.71,3.85c-0.55,1.31-1.56,2.37-3.02,3.19c-1.01,0.56-2.17,0.85-3.5,0.85
			c-1.51,0-2.57-0.13-3.2-0.4c-1.35-0.6-2.37-1.59-3.05-2.96c-0.68-1.38-1.02-2.84-1.02-4.39c0-1.7,0.37-3.21,1.11-4.52
			c0.67-1.17,1.63-2.07,2.86-2.69c0.95-0.48,2.3-0.71,4.05-0.71c1.42,0,2.54,0.26,3.37,0.78c1.08,0.69,1.89,1.66,2.41,2.92
			C60.72,64.02,60.96,65.39,60.96,66.95z M58.62,67.76c0-2.3-0.55-4.1-1.64-5.4c-1.12-1.34-2.58-2.01-4.38-2.01
			c-0.94,0-1.58,0.08-1.93,0.23c-0.23,0.1-0.5,0.36-0.8,0.78c-0.65,0.95-0.98,2.37-0.98,4.25c0,1.96,0.35,3.75,1.05,5.38
			c0.49,1.12,1.13,1.92,1.94,2.41c0.71,0.43,1.49,0.65,2.36,0.65c1,0,1.77-0.16,2.31-0.46c0.65-0.39,1.18-1.13,1.59-2.22
			C58.46,70.53,58.62,69.33,58.62,67.76z"/>
		<path class="st0" d="M78.76,73.95c0,0.1-0.05,0.18-0.15,0.23c-0.28,0.11-0.63,0.26-1.05,0.45c-0.11,0.07-0.28,0.18-0.51,0.33
			c-0.07,0.08-0.17,0.12-0.3,0.12c0.02,0-0.13-0.08-0.45-0.25c-0.59-0.37-1.06-1.19-1.43-2.47c-0.06-0.19-0.17-0.21-0.33-0.07
			c-0.37,0.3-1.39,0.94-3.07,1.93c-0.69,0.41-1.83,0.61-3.44,0.61c-0.91,0-1.64-0.39-2.21-1.18c-0.52-0.74-0.78-1.6-0.78-2.59v-6.56
			c0-2.79-0.23-4.18-0.68-4.18h-1.98c-0.16,0-0.23-0.06-0.23-0.17v-0.55c0-0.11,0.04-0.17,0.13-0.17h2.04
			c0.06,0,0.33-0.02,0.82-0.06c0.49-0.04,0.79-0.06,0.89-0.06c0.81-0.09,1.17-0.13,1.08-0.13c0.19,0,0.28,0.15,0.28,0.45
			c0,0.02-0.01,1.71-0.04,5.07c-0.03,3.36-0.04,5.18-0.04,5.47c0,1.04,0.23,1.76,0.7,2.16c0.4,0.35,1.07,0.53,2.03,0.53
			c0.95,0,2.45-0.45,4.5-1.36c0.11,0,0.17-0.09,0.17-0.28V62.7c0-1.54-0.23-2.31-0.68-2.31h-1.98c-0.13,0-0.2-0.06-0.2-0.17v-0.55
			c0-0.11,0.04-0.17,0.13-0.17h2.14c0.67,0,1.25-0.04,1.73-0.12c0.64-0.09,0.97-0.13,1-0.13c0.15,0,0.23,0.16,0.23,0.48
			c0,0.04-0.01,1.78-0.03,5.22c-0.02,3.44-0.03,5.24-0.03,5.42c0,1.56,0.51,2.66,1.53,3.3C78.69,73.76,78.76,73.85,78.76,73.95z"/>
		<path class="st0" d="M92.11,60.94c-0.12,0.72-0.29,1.41-0.51,2.08c-0.06,0.18-0.13,0.27-0.23,0.27c-0.12,0-0.22-0.06-0.3-0.17
			c-0.29-0.41-0.54-0.69-0.76-0.85c-0.43-0.34-0.99-0.51-1.66-0.51c-1.25,0-2.19,0.27-2.82,0.81c-0.11,0.1-0.17,0.25-0.17,0.45
			c0,0.07-0.01,1.34-0.02,3.83c-0.01,2.49-0.02,3.81-0.02,3.95c0,1.97,0.18,2.96,0.55,2.96h3.25c0.14,0,0.22,0.08,0.22,0.23v0.48
			c0,0.11-0.05,0.17-0.15,0.17h-8.5c-0.16,0-0.23-0.06-0.23-0.17v-0.48c0-0.16,0.07-0.23,0.2-0.23h2.01c0.21,0,0.32-0.11,0.32-0.32
			V62.53c0-1.52-0.18-2.27-0.55-2.27h-2.04c-0.11,0-0.17-0.06-0.17-0.18v-0.53c0-0.12,0.06-0.18,0.17-0.18h2.27
			c0.8,0,1.31-0.03,1.53-0.1c0.61-0.18,0.94-0.27,1-0.27c0.15,0,0.23,0.15,0.23,0.45c0,0.08-0.01,0.41-0.03,0.99
			c-0.02,0.58-0.03,0.91-0.03,0.97c0,0.32,0.07,0.42,0.2,0.28c0.51-0.44,1.09-0.93,1.74-1.46c0.81-0.6,1.6-0.9,2.37-0.9
			c0.9,0,1.59,0.38,2.08,1.13C92.14,60.61,92.16,60.77,92.11,60.94z"/>
		<path class="st0" d="M101.2,74.47c0,0.11-0.07,0.17-0.2,0.17h-7.89c-0.11,0-0.17-0.07-0.17-0.2v-0.51c0-0.16,0.04-0.23,0.13-0.23
			h2.41c0.21,0,0.32-0.12,0.32-0.35c0-0.07,0.01-1.41,0.02-4.03c0.01-2.62,0.02-4.07,0.02-4.34c0-1.73-0.02-2.76-0.05-3.1
			c-0.12-1.03-0.42-1.54-0.9-1.54h-1.64c-0.18,0-0.27-0.06-0.27-0.17v-0.58c0-0.14,0.06-0.22,0.17-0.22h0.98
			c1.03,0,2.02-0.04,2.97-0.13c0.71-0.07,1.03-0.1,0.98-0.1c0.25,0,0.38,0.17,0.38,0.51c0,0.03-0.04,1.68-0.12,4.94
			c-0.08,3.26-0.12,4.97-0.12,5.12c0,2.66,0.27,3.98,0.81,3.98h2.01c0.11,0,0.17,0.06,0.17,0.17V74.47z M98.46,53.45
			c0,0.59-0.27,1.11-0.8,1.56c-0.45,0.39-0.88,0.58-1.28,0.58c-0.73,0-1.1-0.36-1.1-1.08c0-0.43,0.18-0.87,0.55-1.31
			c0.44-0.53,0.98-0.8,1.63-0.8C98.13,52.4,98.46,52.75,98.46,53.45z"/>
		<path class="st0" d="M113.89,70.35c0,1.21-0.34,2.21-1.01,3.02c-0.84,1-2.25,1.49-4.22,1.49c-2.1,0-3.88-0.58-5.35-1.73
			c-0.16-0.12-0.23-0.36-0.23-0.71c-0.04-0.45-0.07-1.43-0.07-2.92c0-0.21,0.09-0.32,0.27-0.32c0.19,0,0.3,0.08,0.35,0.25
			c0,0.04,0.04,0.2,0.13,0.46c0.09,0.31,0.14,0.53,0.17,0.65c0.28,0.96,0.8,1.92,1.56,2.86c0.21,0.24,0.39,0.38,0.55,0.42
			c0.53,0.09,1.39,0.13,2.59,0.13c1.18,0,2.13-0.3,2.82-0.91c0.54-0.48,0.81-1.13,0.81-1.98c0-0.5-0.21-0.93-0.61-1.29
			c-0.56-0.5-1.3-0.85-2.21-1.05c-0.1-0.03-0.42-0.15-0.96-0.34c-0.54-0.19-0.87-0.31-0.98-0.34c-1.28-0.56-2.21-1.12-2.77-1.68
			c-0.8-0.77-1.2-1.77-1.2-2.99c0-0.99,0.35-1.85,1.05-2.59c0.89-0.93,2.17-1.39,3.85-1.39c2.06,0,3.59,0.5,4.58,1.51
			c0.09,0.09,0.13,0.22,0.13,0.4v2.39c0,0.24-0.06,0.37-0.17,0.37c-0.13,0-0.23-0.07-0.3-0.2c-0.42-0.92-0.89-1.92-1.39-2.99
			c-0.1-0.19-0.23-0.29-0.38-0.32c-0.49-0.13-1.25-0.2-2.27-0.2c-0.97,0-1.77,0.18-2.37,0.55c-0.71,0.41-1.06,1.02-1.06,1.83
			c0,1.31,0.91,2.22,2.72,2.76c0.55,0.17,1.37,0.43,2.44,0.78c1.02,0.34,1.83,0.79,2.42,1.33C113.52,68.28,113.89,69.2,113.89,70.35
			z"/>
		<path class="st0" d="M141.23,74.5c0,0.09-0.07,0.13-0.2,0.13h-6.77c-0.11,0-0.17-0.06-0.17-0.17v-0.51c0-0.13,0.06-0.2,0.17-0.2
			h1.56c0.18,0,0.28-0.09,0.32-0.28c0.11-0.6,0.17-3.03,0.17-7.3c0-2.1-0.23-3.44-0.68-4.02c-0.54-0.67-1.37-1.01-2.49-1.01
			c-1.45,0-2.61,0.45-3.49,1.36c-0.1,0.12-0.15,0.27-0.15,0.43v7.32c0,2.33,0.16,3.5,0.48,3.5h1.98c0.09,0,0.13,0.06,0.13,0.17v0.55
			c0,0.11-0.04,0.17-0.13,0.17h-6.49c-0.12,0-0.18-0.04-0.18-0.13v-0.58c0-0.11,0.05-0.17,0.15-0.17h1.63
			c0.16,0,0.23-0.11,0.23-0.32c0-0.07-0.01-1.67-0.02-4.8s-0.02-4.77-0.02-4.91c0-1.82-0.9-2.72-2.69-2.72
			c-1.67,0-2.95,0.44-3.83,1.33c-0.13,0.13-0.2,0.28-0.2,0.43v7.55c0,2.31,0.19,3.47,0.56,3.47h2.01c0.12,0,0.18,0.04,0.18,0.13
			v0.55c0,0.11-0.05,0.17-0.15,0.17h-7.11c-0.09,0-0.14-0.02-0.17-0.05s-0.03-0.07-0.03-0.12v-0.48c0-0.16,0.07-0.23,0.2-0.23H118
			c0.21,0,0.32-0.14,0.32-0.42c0-0.04-0.02-1.76-0.08-5.14c-0.05-3.38-0.07-5.15-0.07-5.3c0-1.8-0.23-2.71-0.68-2.71h-1.73
			c-0.13,0-0.2-0.06-0.2-0.18v-0.5c0-0.12,0.06-0.18,0.17-0.18h2.31c0.35,0,0.82-0.03,1.39-0.1c0.09-0.01,0.24-0.04,0.46-0.09
			c0.22-0.05,0.36-0.07,0.42-0.07c0.17,0,0.25,0.09,0.25,0.27c0,0.06-0.01,0.35-0.03,0.9s-0.03,0.86-0.03,0.95
			c0,0.28,0.08,0.37,0.23,0.27c0.19-0.14,0.8-0.54,1.84-1.18c0.24-0.18,0.63-0.39,1.15-0.65c0.8-0.28,1.57-0.42,2.31-0.42
			c0.86,0,1.59,0.25,2.19,0.75c0.46,0.4,0.78,0.94,0.95,1.61c0.06,0.22,0.17,0.27,0.33,0.13c0.55-0.54,0.99-0.91,1.29-1.1
			c0.17-0.14,0.56-0.42,1.2-0.81c0.55-0.3,1.38-0.45,2.47-0.45c1.13,0,2.08,0.39,2.86,1.16c0.86,0.85,1.29,2.58,1.29,5.2
			c0,0.11-0.03,1.09-0.1,2.95c-0.07,1.85-0.1,2.83-0.1,2.91c0,1.47,0.12,2.21,0.37,2.21h2.32c0.09,0,0.13,0.06,0.13,0.17V74.5z"/>
	</g>
</g>
<g id="cheese">
	<polygon class="st1" points="90.59,48.04 88.94,56.62 90.82,58.2 92.65,49.61 	"/>
	<polyline class="st2" points="92.46,49.61 90.82,58.2 103.85,58.05 105.45,49.73 	"/>
	<polygon class="st3" points="105.45,49.73 90.59,48.03 92.46,49.61 	"/>
	
		<ellipse transform="matrix(0.1127 -0.9936 0.9936 0.1127 31.7927 141.7833)" class="st4" cx="95.28" cy="53.09" rx="0.9" ry="1.2"/>
	<ellipse transform="matrix(0.9997 -0.0232 0.0232 0.9997 -1.2302 2.317)" class="st4" cx="99.24" cy="54.18" rx="0.86" ry="0.54"/>
	
		<ellipse transform="matrix(0.4613 -0.8872 0.8872 0.4613 0.6542 109.5917)" class="st5" cx="90.58" cy="54.26" rx="0.53" ry="0.68"/>
	<ellipse transform="matrix(0.9999 -0.012 0.012 0.9999 -0.6677 1.2254)" class="st4" cx="102.2" cy="56.48" rx="0.7" ry="0.48"/>
	
		<ellipse transform="matrix(0.0583 -0.9983 0.9983 0.0583 39.6061 139.9546)" class="st6" cx="93.98" cy="48.99" rx="0.39" ry="1.19"/>
	
		<ellipse transform="matrix(0.9786 -0.2055 0.2055 0.9786 -9.5729 20.8829)" class="st4" cx="95.73" cy="56.52" rx="0.85" ry="0.55"/>
	
		<ellipse transform="matrix(0.9998 -0.0212 0.0212 0.9998 -1.0793 2.1517)" class="st4" cx="101.17" cy="52.09" rx="1.07" ry="0.69"/>
</g>
<g id="Decoration">
	<path class="st0" d="M149.53,75.45c0,0-6.36-1.56-5.95-5.03c0.28-2.31,3.38-4.07,7.96-5.09c3.72-0.83,13.42-1.81,19.25-0.71
		c3.28,0.62,5.46,4.23,5.46,8.48c0,7.75-4.33,10.52-8.76,12.57c-10.58,4.9-28.64,2.78-45.05,2.94c-9.33,0.09-64.76-2.16-74.91-2.84
		c-11.18-0.75-13.05-1.17-18.3-1.67c-5.98-0.57-27.94-3.21-15.98-3.23c89.45-0.21,119.86,1,129.56,0.17
		c5.8-0.5,17.11-0.86,19.89-4.46c5.36-6.96-7.17-6.03-11.62-4.98C147.01,72.54,149.53,75.45,149.53,75.45z"/>
	<path class="st7" d="M93.11,59.37c-0.22,0.04-0.24,0.91-0.02,0.93c0.77,0.07,5.37-0.6,5.37-0.6s0.05-0.48-0.24-0.55
		S93.87,59.23,93.11,59.37z"/>
	<path class="st0" d="M124.48,91.18c0,0,0.08,2.81-2.32,3.07c-2.39,0.26-71.7-1.84-73.7-3.75c-1.77-1.69,46.54,0.64,54.99,0.65
		C111.85,91.17,124.48,91.18,124.48,91.18z"/>
</g>
</svg>
